<?xml version="1.0" encoding="utf-8"?>
<!-- Generator: Adobe Illustrator 19.0.0, SVG Export Plug-In . SVG Version: 6.00 Build 0)  -->
<svg version="1.1" id="Capa_1" xmlns="http://www.w3.org/2000/svg" xmlns:xlink="http://www.w3.org/1999/xlink" x="0px" y="0px"
	 viewBox="0 0 372 552" style="enable-background:new 0 0 372 552;" xml:space="preserve">
<style type="text/css">
	.st0{fill:url(#XMLID_68_);}
	.st1{clip-path:url(#XMLID_70_);fill:#FFFFFF;}
</style>
<g id="XMLID_1_">
	<linearGradient id="XMLID_68_" gradientUnits="userSpaceOnUse" x1="0" y1="276" x2="372" y2="276">
		<stop  offset="0" style="stop-color:#763E8E"/>
		<stop  offset="1" style="stop-color:#DA033A"/>
	</linearGradient>
	<polygon id="XMLID_4_" class="st0" points="372,0 0,552 0,0 	"/>
	<g>
		<g id="XMLID_31_">
			<defs>
				<path id="XMLID_32_" d="M116.1,102.2l-10.9,25.7H90.8c-1.2,0-2.1,1-2.1,2.1c0,1.2,1,2.1,2.1,2.1l15.7,1.4c0.9,0,1.6-0.5,2-1.3
					l8.6-12.9L124,154c0.2,0.9,0.9,1.7,1.8,1.8c0.1,0,0.2,0,0.3,0c0.8,0,1.6-0.5,2-1.3l10.9-23.8h14.6c1.2,0,2.1-1,2.1-2.1
					c0-1.2-1-2.1-2.1-2.1l-16-1.4c-0.8,0-1.6,0.5-2,1.3l-8.5,11.4l-7-35c-0.2-0.9-0.9-1.7-1.9-1.8c-0.1,0-0.2,0-0.3,0
					C117.2,100.9,116.4,101.4,116.1,102.2"/>
			</defs>
			<clipPath id="XMLID_69_">
				<use xlink:href="#XMLID_32_"  style="overflow:visible;"/>
			</clipPath>
		</g>
		<g id="XMLID_28_">
			<defs>
				<path id="XMLID_29_" d="M116.1,102.2l-10.9,25.7H90.8c-1.2,0-2.1,1-2.1,2.1c0,1.2,1,2.1,2.1,2.1l15.7,1.4c0.9,0,1.6-0.5,2-1.3
					l8.6-12.9L124,154c0.2,0.9,0.9,1.7,1.8,1.8c0.1,0,0.2,0,0.3,0c0.8,0,1.6-0.5,2-1.3l10.9-23.8h14.6c1.2,0,2.1-1,2.1-2.1
					c0-1.2-1-2.1-2.1-2.1l-16-1.4c-0.8,0-1.6,0.5-2,1.3l-8.5,11.4l-7-35c-0.2-0.9-0.9-1.7-1.9-1.8c-0.1,0-0.2,0-0.3,0
					C117.2,100.9,116.4,101.4,116.1,102.2"/>
			</defs>
			<use xlink:href="#XMLID_29_"  style="overflow:visible;fill:#FFFFFF;"/>
			<clipPath id="XMLID_70_">
				<use xlink:href="#XMLID_29_"  style="overflow:visible;"/>
			</clipPath>
			<rect id="XMLID_30_" x="88.7" y="100.9" class="st1" width="67" height="54.9"/>
		</g>
		<g id="XMLID_25_">
			<defs>
				<path id="XMLID_26_" d="M116.1,102.2l-10.9,25.7H90.8c-1.2,0-2.1,1-2.1,2.1c0,1.2,1,2.1,2.1,2.1l15.7,1.4c0.9,0,1.6-0.5,2-1.3
					l8.6-12.9L124,154c0.2,0.9,0.9,1.7,1.8,1.8c0.1,0,0.2,0,0.3,0c0.8,0,1.6-0.5,2-1.3l10.9-23.8h14.6c1.2,0,2.1-1,2.1-2.1
					c0-1.2-1-2.1-2.1-2.1l-16-1.4c-0.8,0-1.6,0.5-2,1.3l-8.5,11.4l-7-35c-0.2-0.9-0.9-1.7-1.9-1.8c-0.1,0-0.2,0-0.3,0
					C117.2,100.9,116.4,101.4,116.1,102.2"/>
			</defs>
			<clipPath id="XMLID_71_">
				<use xlink:href="#XMLID_26_"  style="overflow:visible;"/>
			</clipPath>
		</g>
	</g>
</g>
<g id="XMLID_52_">
</g>
<g id="XMLID_53_">
</g>
<g id="XMLID_54_">
</g>
<g id="XMLID_55_">
</g>
<g id="XMLID_56_">
</g>
<g id="XMLID_57_">
</g>
<g id="XMLID_58_">
</g>
<g id="XMLID_59_">
</g>
<g id="XMLID_60_">
</g>
<g id="XMLID_61_">
</g>
<g id="XMLID_62_">
</g>
<g id="XMLID_63_">
</g>
<g id="XMLID_64_">
</g>
<g id="XMLID_65_">
</g>
<g id="XMLID_66_">
</g>
</svg>
