<?xml version="1.0" encoding="utf-8"?>
<!-- Generator: Adobe Illustrator 19.0.0, SVG Export Plug-In . SVG Version: 6.00 Build 0)  -->
<svg version="1.1" id="Capa_1" xmlns="http://www.w3.org/2000/svg" xmlns:xlink="http://www.w3.org/1999/xlink" x="0px" y="0px"
	 viewBox="0 0 661.7 661.7" style="enable-background:new 0 0 661.7 661.7;" xml:space="preserve">
<style type="text/css">
	.st0{fill:url(#SVGID_1_);}
	.st1{fill:#6841C3;}
</style>
<g id="XMLID_1_">
	
		<linearGradient id="SVGID_1_" gradientUnits="userSpaceOnUse" x1="-96.1474" y1="294.257" x2="394.7313" y2="294.257" gradientTransform="matrix(0.9991 4.271342e-002 -4.271342e-002 0.9991 116.9465 -11.6401)">
		<stop  offset="0" style="stop-color:#763E8E"/>
		<stop  offset="1" style="stop-color:#DA033A"/>
	</linearGradient>
	<path class="st0" d="M95.5,546.9C37.8,484.1,8,402.5,11.7,317.2s40.3-164,103.1-221.7S259.2,8,344.5,11.7
		c58.4,2.5,113.8,20.5,161.4,51.8l3.1-4C460.5,27.5,404.2,9.2,344.7,6.7C258.1,3,175.3,33.2,111.4,91.8S10.4,230.4,6.7,317
		s26.5,169.5,85.2,233.3c5.8,6.3,11.9,12.4,18.1,18.2l3.1-3.9C107,559,101.1,553.1,95.5,546.9z"/>
	<path class="st1" d="M550.3,569.9c63.9-58.6,101.1-138.6,104.8-225.2s-26.5-169.5-85.2-233.3c-18.4-20-38.8-37.4-60.9-51.9l-3.1,4
		c21.9,14.4,42.2,31.6,60.3,51.4c57.7,62.9,87.5,144.4,83.8,229.7c-3.6,85.3-40.3,164-103.1,221.7s-144.4,87.5-229.7,83.8
		c-76.9-3.3-148.5-33.4-204.2-85.5l-3.1,3.9c56.5,52.7,129.1,83.2,207.1,86.5C403.6,658.8,486.5,628.5,550.3,569.9z"/>
</g>
<g id="XMLID_54_">
</g>
<g id="XMLID_55_">
</g>
<g id="XMLID_56_">
</g>
<g id="XMLID_57_">
</g>
<g id="XMLID_58_">
</g>
<g id="XMLID_59_">
</g>
<g id="XMLID_60_">
</g>
<g id="XMLID_61_">
</g>
<g id="XMLID_62_">
</g>
<g id="XMLID_63_">
</g>
<g id="XMLID_64_">
</g>
<g id="XMLID_65_">
</g>
<g id="XMLID_66_">
</g>
<g id="XMLID_67_">
</g>
<g id="XMLID_68_">
</g>
</svg>
