<?xml version="1.0" encoding="utf-8"?>
<!-- Generator: Adobe Illustrator 19.0.0, SVG Export Plug-In . SVG Version: 6.00 Build 0)  -->
<svg version="1.1" id="Capa_1" xmlns="http://www.w3.org/2000/svg" xmlns:xlink="http://www.w3.org/1999/xlink" x="0px" y="0px"
	 viewBox="0 0 795.2 67" style="enable-background:new 0 0 795.2 67;" xml:space="preserve">
<style type="text/css">
	.st0{clip-path:url(#XMLID_114_);}
	.st1{fill:url(#SVGID_1_);}
	.st2{fill:#FFFFFF;}
</style>
<g>
	<defs>
		<path id="XMLID_53_" d="M21.2,23c3.8,0,5.9,2,6.6,3c0.2,0.3,0.3,0.5,0.3,0.8c0,0.7-0.6,1.2-1.2,1.2c-0.4,0-0.7-0.2-1-0.5
			c-0.6-0.7-1.8-2-4.6-2c-4,0-6.1,2.5-6.1,7.8c0,5.4,2.1,7.9,6.1,7.9c2.5,0,4-1.1,5-1.8c0.3-0.2,0.5-0.3,0.8-0.3
			c0.7,0,1.2,0.6,1.2,1.2c0,0.4-0.1,0.7-0.6,1.1c-0.9,0.8-3,2.3-6.5,2.3c-5.5,0-8.9-3.3-8.9-10.4S15.7,23,21.2,23z M62.3,33.3
			c0,7.1-3.4,10.4-9,10.4c-5.5,0-9-3.3-9-10.4s3.5-10.3,9-10.3C58.8,23,62.3,26.2,62.3,33.3z M59.5,33.3c0-5.4-2.3-7.8-6.2-7.8
			S47,27.9,47,33.3c0,5.5,2.3,7.9,6.2,7.9S59.5,38.8,59.5,33.3z M95.9,30.6V42c0,0.8-0.6,1.4-1.4,1.4s-1.4-0.6-1.4-1.4V31.1
			c0-3.4-1-5.7-5.2-5.7c-4.3,0-5.7,2.6-5.7,6V42c0,0.8-0.6,1.4-1.4,1.4s-1.4-0.6-1.4-1.4V24.6c0-0.8,0.6-1.4,1.4-1.4
			s1.4,0.6,1.4,1.4V26c0.8-1.6,2.9-3,5.7-3C94.6,23,95.9,26.9,95.9,30.6z M115,19c0-0.7,0.6-1.4,1.4-1.4c0.8,0,1.4,0.6,1.4,1.4v4.5
			h2.8c0.7,0,1.3,0.6,1.3,1.3c0,0.7-0.6,1.3-1.3,1.3h-2.8V38c0,1.8,1,2.8,2.5,2.8c0.7,0,1.3,0.6,1.3,1.3c0,0.7-0.6,1.3-1.3,1.3
			c-3.4,0-5.2-2.3-5.2-5.4V26.1h-1.7c-0.7,0-1.3-0.6-1.3-1.3c0-0.7,0.6-1.3,1.3-1.3h1.7V19z M141,27.7c-0.4,0.5-0.7,0.6-1.1,0.6
			c-0.7,0-1.2-0.6-1.2-1.2c0-0.3,0.1-0.5,0.2-0.7c1.2-1.9,3.5-3.4,7.1-3.4c5,0,7.7,2.9,7.7,7.3v11.8c0,0.7-0.6,1.3-1.3,1.3
			c-0.7,0-1.3-0.6-1.3-1.3v-1.5c-1.1,2-3.6,3.1-6.1,3.1c-4.6,0-7.4-2.2-7.4-6.1c0-3.8,2.9-6.1,7.5-6.1h6.1v-1.2
			c0-2.9-1.9-4.7-5.1-4.7C143.7,25.5,142.3,26.2,141,27.7z M151.1,35.6v-1.8H145c-2.8,0-4.7,1.2-4.7,3.7c0,2.2,1.5,3.7,4.9,3.7
			C148.2,41.1,151.1,39.3,151.1,35.6z M179.4,23c3.8,0,5.9,2,6.6,3c0.2,0.3,0.3,0.5,0.3,0.8c0,0.7-0.6,1.2-1.2,1.2
			c-0.4,0-0.7-0.2-1-0.5c-0.6-0.7-1.8-2-4.6-2c-4,0-6.1,2.5-6.1,7.8c0,5.4,2.1,7.9,6.1,7.9c2.5,0,4-1.1,5-1.8
			c0.3-0.2,0.5-0.3,0.8-0.3c0.7,0,1.2,0.6,1.2,1.2c0,0.4-0.1,0.7-0.6,1.1c-0.9,0.8-3,2.3-6.5,2.3c-5.5,0-8.9-3.3-8.9-10.4
			S173.8,23,179.4,23z M204.7,19c0-0.7,0.6-1.4,1.4-1.4c0.8,0,1.4,0.6,1.4,1.4v4.5h2.8c0.7,0,1.3,0.6,1.3,1.3c0,0.7-0.6,1.3-1.3,1.3
			h-2.8V38c0,1.8,1,2.8,2.5,2.8c0.7,0,1.3,0.6,1.3,1.3c0,0.7-0.6,1.3-1.3,1.3c-3.4,0-5.2-2.3-5.2-5.4V26.1h-1.7
			c-0.7,0-1.3-0.6-1.3-1.3c0-0.7,0.6-1.3,1.3-1.3h1.7V19z M245.3,33.3c0,7.1-3.4,10.4-9,10.4c-5.5,0-9-3.3-9-10.4s3.5-10.3,9-10.3
			C241.9,23,245.3,26.2,245.3,33.3z M242.5,33.3c0-5.4-2.3-7.8-6.2-7.8s-6.2,2.4-6.2,7.8c0,5.5,2.3,7.9,6.2,7.9
			S242.5,38.8,242.5,33.3z M275.9,43.4c-3.2,0-5.8-1.7-5.8-4.7c0-2.9,2.1-4.6,5.6-4.6h5V33c0-2.2-1.7-3.3-4-3.3
			c-1.8,0-2.9,0.8-3.8,1.8c-0.3,0.3-0.6,0.4-0.9,0.4c-0.6,0-1-0.5-1-1c0-0.2,0.1-0.5,0.2-0.6c1-1.4,2.7-2.5,5.5-2.5
			c4.1,0,6.1,2.3,6.1,5.5v5.2c0,2.4,1,3.1,2.8,3.1c3.1,0,4.8-1.6,4.8-6.9c0-8.9-5.3-12.7-13.4-12.7c-8.2,0-13.3,3.7-13.3,13.7
			c0,10.1,5.1,13.7,13.3,13.7c3.5,0,7.1-0.5,9.9-2.4c0.1-0.1,0.3-0.2,0.6-0.2c0.5,0,1,0.4,1,1c0,0.3-0.1,0.6-0.4,0.8
			c-3.3,2-6.7,2.6-11.1,2.6c-9.7,0-15.4-4.9-15.4-15.6c0-10.7,5.8-15.6,15.4-15.6c9,0,15.6,4.8,15.6,14.6c0,3.7-1.1,8.7-6.9,8.7
			c-2.5,0-3.9-1.1-4.6-2.6C280,42.3,278.3,43.4,275.9,43.4z M280.7,37.3v-1.4h-5c-2.1,0-3.4,0.9-3.4,2.8c0,1.7,1.3,2.8,3.8,2.8
			C278.3,41.5,280.7,40.1,280.7,37.3z M327.1,33.3c0,7.1-3.3,10.4-8.8,10.4c-4.9,0-8.4-2.8-8.4-8.5V13.8c0-0.8,0.6-1.4,1.4-1.4
			s1.4,0.6,1.4,1.4v11.9c1-1.4,3.1-2.8,5.8-2.8C324,23,327.1,26.2,327.1,33.3z M312.6,35.2c0,4.1,2.4,6,5.7,6c4,0,6.1-2.5,6.1-7.9
			c0-5.3-2.2-7.8-6.1-7.8c-4,0-5.7,3.8-5.7,3.8V35.2z M351.9,23c6.9,0,8.2,5.5,8.2,8.4c0,1.2,0,2.8-1.7,2.8h-12.6c0,4.3,2.5,7,6.5,7
			c2.5,0,4-0.9,5.2-1.8c0.3-0.2,0.4-0.3,0.8-0.3c0.7,0,1.2,0.6,1.2,1.2c0,0.5-0.2,0.7-0.5,1c-0.6,0.6-2.9,2.4-6.7,2.4
			c-5.7,0-9.3-3.1-9.3-10.4C343,26.6,346.3,23,351.9,23z M351.9,25.4c-3.7,0-5.8,2.4-6.1,6.2h11.6C357.4,28.6,356.3,25.4,351.9,25.4
			z M379.4,27.7c-0.4,0.5-0.7,0.6-1.1,0.6c-0.7,0-1.2-0.6-1.2-1.2c0-0.3,0.1-0.5,0.2-0.7c1.2-1.9,3.5-3.4,7.1-3.4
			c5,0,7.7,2.9,7.7,7.3v11.8c0,0.7-0.6,1.3-1.3,1.3c-0.7,0-1.3-0.6-1.3-1.3v-1.5c-1.1,2-3.6,3.1-6.1,3.1c-4.6,0-7.4-2.2-7.4-6.1
			c0-3.8,2.9-6.1,7.5-6.1h6.1v-1.2c0-2.9-1.9-4.7-5.1-4.7C382.1,25.5,380.8,26.2,379.4,27.7z M389.5,35.6v-1.8h-6.1
			c-2.8,0-4.7,1.2-4.7,3.7c0,2.2,1.5,3.7,4.9,3.7C386.6,41.1,389.5,39.3,389.5,35.6z M411.3,19c0-0.7,0.6-1.4,1.4-1.4
			c0.8,0,1.4,0.6,1.4,1.4v4.5h2.8c0.7,0,1.3,0.6,1.3,1.3c0,0.7-0.6,1.3-1.3,1.3h-2.8V38c0,1.8,1,2.8,2.5,2.8c0.7,0,1.3,0.6,1.3,1.3
			c0,0.7-0.6,1.3-1.3,1.3c-3.4,0-5.2-2.3-5.2-5.4V26.1h-1.7c-0.7,0-1.3-0.6-1.3-1.3c0-0.7,0.6-1.3,1.3-1.3h1.7V19z M437.4,28.2
			c0,4.5,11.3,2.8,11.3,9.7c0,3.9-3.2,5.7-7.3,5.7c-3.5,0-6.2-1.7-7.4-3.1c-0.2-0.3-0.3-0.5-0.3-0.8c0-0.7,0.6-1.2,1.2-1.2
			c0.3,0,0.6,0.1,0.9,0.4c1.3,1.3,3.1,2.1,5.5,2.1c2.5,0,4.6-0.8,4.6-3.1c0-4.4-11.3-2.7-11.3-9.7c0-3.6,2.9-5.2,6.6-5.2
			c2.9,0,5.2,1,6.5,2.8c0.1,0.2,0.3,0.4,0.3,0.8c0,0.7-0.6,1.2-1.2,1.2c-0.2,0-0.6,0-0.9-0.4c-1.2-1.1-2.5-1.8-4.7-1.8
			C439.3,25.6,437.4,26.2,437.4,28.2z M495.8,30.6V42c0,0.8-0.6,1.4-1.4,1.4c-0.8,0-1.4-0.6-1.4-1.4V31.1c0-3.4-1.2-5.7-5.4-5.7
			c-3.7,0-5.4,2-5.4,5.2V42c0,0.8-0.6,1.4-1.4,1.4c-0.8,0-1.4-0.6-1.4-1.4V31.1c0-3.4-1.1-5.7-5.3-5.7c-4,0-5.3,2.4-5.3,6V42
			c0,0.8-0.6,1.4-1.4,1.4s-1.4-0.6-1.4-1.4V24.6c0-0.8,0.6-1.4,1.4-1.4s1.4,0.6,1.4,1.4V26c0.7-1.6,2.8-3,5.6-3c3.5,0,5.8,1.3,6.8,3
			c1.1-1.7,3-3,6.3-3C494.3,23,495.8,26.9,495.8,30.6z M516.2,24.6v11.2c0,2.8,0.9,5.2,5.2,5.2c4.3,0,5.2-2.4,5.2-5.2V24.6
			c0-0.8,0.6-1.4,1.4-1.4c0.7,0,1.3,0.6,1.3,1.4v11.2c0,4.1-1.3,7.8-8,7.8c-6.6,0-8-3.7-8-7.8V24.6c0-0.8,0.6-1.4,1.4-1.4
			C515.6,23.2,516.2,23.8,516.2,24.6z M549.8,28.2c0,4.5,11.3,2.8,11.3,9.7c0,3.9-3.2,5.7-7.3,5.7c-3.5,0-6.2-1.7-7.4-3.1
			c-0.2-0.3-0.3-0.5-0.3-0.8c0-0.7,0.6-1.2,1.2-1.2c0.3,0,0.6,0.1,0.9,0.4c1.3,1.3,3.1,2.1,5.5,2.1c2.5,0,4.6-0.8,4.6-3.1
			c0-4.4-11.3-2.7-11.3-9.7c0-3.6,2.9-5.2,6.6-5.2c2.9,0,5.2,1,6.5,2.8c0.1,0.2,0.3,0.4,0.3,0.8c0,0.7-0.6,1.2-1.2,1.2
			c-0.2,0-0.6,0-0.9-0.4c-1.2-1.1-2.5-1.8-4.7-1.8C551.7,25.6,549.8,26.2,549.8,28.2z M578.4,17.5c0-1.2,0.6-1.7,1.6-1.7
			s1.6,0.5,1.6,1.7c0,1-0.6,1.6-1.6,1.6S578.4,18.6,578.4,17.5z M581.4,42c0,0.8-0.6,1.4-1.4,1.4s-1.4-0.6-1.4-1.4V24.6
			c0-0.8,0.6-1.4,1.4-1.4s1.4,0.6,1.4,1.4V42z M607.4,23c3.8,0,5.9,2,6.6,3c0.2,0.3,0.3,0.5,0.3,0.8c0,0.7-0.6,1.2-1.2,1.2
			c-0.4,0-0.7-0.2-1-0.5c-0.6-0.7-1.8-2-4.6-2c-4,0-6.1,2.5-6.1,7.8c0,5.4,2.1,7.9,6.1,7.9c2.5,0,4-1.1,5-1.8
			c0.3-0.2,0.5-0.3,0.8-0.3c0.7,0,1.2,0.6,1.2,1.2c0,0.4-0.1,0.7-0.6,1.1c-0.9,0.8-3,2.3-6.5,2.3c-5.5,0-8.9-3.3-8.9-10.4
			S601.9,23,607.4,23z M633.9,27.7c-0.4,0.5-0.7,0.6-1.1,0.6c-0.7,0-1.2-0.6-1.2-1.2c0-0.3,0.1-0.5,0.2-0.7c1.2-1.9,3.5-3.4,7.1-3.4
			c5,0,7.7,2.9,7.7,7.3v11.8c0,0.7-0.6,1.3-1.3,1.3c-0.7,0-1.3-0.6-1.3-1.3v-1.5c-1.1,2-3.6,3.1-6.1,3.1c-4.6,0-7.4-2.2-7.4-6.1
			c0-3.8,2.9-6.1,7.5-6.1h6.1v-1.2c0-2.9-1.9-4.7-5.1-4.7C636.6,25.5,635.2,26.2,633.9,27.7z M644,35.6v-1.8h-6.1
			c-2.8,0-4.7,1.2-4.7,3.7c0,2.2,1.5,3.7,4.9,3.7C641.1,41.1,644,39.3,644,35.6z M663.3,41.4c0-1.4,0.8-2.1,2-2.1c1.2,0,2,0.6,2,2.1
			s-0.8,2-2,2C664.1,43.4,663.3,42.8,663.3,41.4z M692,23c3.8,0,5.9,2,6.6,3c0.2,0.3,0.3,0.5,0.3,0.8c0,0.7-0.6,1.2-1.2,1.2
			c-0.4,0-0.7-0.2-1-0.5c-0.6-0.7-1.8-2-4.6-2c-4,0-6.1,2.5-6.1,7.8c0,5.4,2.1,7.9,6.1,7.9c2.5,0,4-1.1,5-1.8
			c0.3-0.2,0.5-0.3,0.8-0.3c0.7,0,1.2,0.6,1.2,1.2c0,0.4-0.1,0.7-0.6,1.1c-0.9,0.8-3,2.3-6.5,2.3c-5.5,0-8.9-3.3-8.9-10.4
			S686.5,23,692,23z M733.1,33.3c0,7.1-3.4,10.4-9,10.4c-5.5,0-9-3.3-9-10.4s3.5-10.3,9-10.3C729.7,23,733.1,26.2,733.1,33.3z
			 M730.3,33.3c0-5.4-2.3-7.8-6.2-7.8s-6.2,2.4-6.2,7.8c0,5.5,2.3,7.9,6.2,7.9S730.3,38.8,730.3,33.3z M779.9,30.6V42
			c0,0.8-0.6,1.4-1.4,1.4c-0.8,0-1.4-0.6-1.4-1.4V31.1c0-3.4-1.2-5.7-5.4-5.7c-3.7,0-5.4,2-5.4,5.2V42c0,0.8-0.6,1.4-1.4,1.4
			c-0.8,0-1.4-0.6-1.4-1.4V31.1c0-3.4-1.1-5.7-5.3-5.7c-4,0-5.3,2.4-5.3,6V42c0,0.8-0.6,1.4-1.4,1.4s-1.4-0.6-1.4-1.4V24.6
			c0-0.8,0.6-1.4,1.4-1.4s1.4,0.6,1.4,1.4V26c0.7-1.6,2.8-3,5.6-3c3.5,0,5.8,1.3,6.8,3c1.1-1.7,3-3,6.3-3
			C778.4,23,779.9,26.9,779.9,30.6z"/>
	</defs>
	<clipPath id="XMLID_114_">
		<use xlink:href="#XMLID_53_"  style="overflow:visible;"/>
	</clipPath>
	<g class="st0">
		<linearGradient id="SVGID_1_" gradientUnits="userSpaceOnUse" x1="-90.7071" y1="32.9988" x2="793.2936" y2="32.9988">
			<stop  offset="0" style="stop-color:#863C93"/>
			<stop  offset="1" style="stop-color:#FF0138"/>
		</linearGradient>
		<rect x="-90.7" y="1" class="st1" width="884" height="64"/>
		<rect x="1" class="st2" width="298" height="67"/>
		<rect x="656" class="st2" width="135.5" height="67"/>
	</g>
</g>
<g id="XMLID_97_">
</g>
<g id="XMLID_99_">
</g>
<g id="XMLID_100_">
</g>
<g id="XMLID_101_">
</g>
<g id="XMLID_102_">
</g>
<g id="XMLID_103_">
</g>
<g id="XMLID_104_">
</g>
<g id="XMLID_105_">
</g>
<g id="XMLID_106_">
</g>
<g id="XMLID_107_">
</g>
<g id="XMLID_108_">
</g>
<g id="XMLID_109_">
</g>
<g id="XMLID_110_">
</g>
<g id="XMLID_111_">
</g>
<g id="XMLID_112_">
</g>
</svg>
