<?xml version="1.0" encoding="utf-8"?>
<!-- Generator: Adobe Illustrator 19.0.0, SVG Export Plug-In . SVG Version: 6.00 Build 0)  -->
<svg version="1.1" id="Capa_1" xmlns="http://www.w3.org/2000/svg" xmlns:xlink="http://www.w3.org/1999/xlink" x="0px" y="0px"
	 viewBox="0 0 151.5 281" style="enable-background:new 0 0 151.5 281;" xml:space="preserve">
<style type="text/css">
	.st0{fill:#FFFFFF;}
	.st1{fill:url(#SVGID_1_);}
	.st2{fill:#151923;}
</style>
<g>
	<path class="st0" d="M140.7,12.4c0,0-96,55.3-97.7,56.4c-1.7,1.2-2.6,3-2.6,3c-0.6,1.2-0.9,2.5-0.9,4v74.4c0,3.7,2.1,6.7,5.4,7.7
		L101,72.8c0,0-0.1-0.1-0.1-0.1L140.7,12.4z"/>
	<linearGradient id="SVGID_1_" gradientUnits="userSpaceOnUse" x1="11.9453" y1="140.2485" x2="118.3985" y2="140.2485">
		<stop  offset="0" style="stop-color:#843C91"/>
		<stop  offset="1" style="stop-color:#DA0038"/>
	</linearGradient>
	<path class="st1" d="M116.5,120.6c-2.2-5.8-6.5-10.7-13-13.3c5.5-4.8,7.2-8.7,7.2-14.6c0-8-3.3-15.4-9.7-20L44.8,158l-32.8,49.8
		l88.4-51.1l9.9-5.7c1.2-1.1,2.2-2.2,3.1-3.5c3.3-4.6,5-10.2,5-16.4C118.4,127.5,117.8,123.9,116.5,120.6z"/>
	<g>
		<g id="XMLID_53_">
			<path id="XMLID_54_" class="st2" d="M34.2,240.2c0,9.7-4.5,14.2-12.1,14.2c-6.7,0-11.6-3.8-11.6-11.6v-29.3
				c0-1.1,0.8-1.9,1.9-1.9s1.9,0.8,1.9,1.9v16.4c1.4-1.9,4.3-3.8,8-3.8C30,226,34.2,230.5,34.2,240.2z M14.3,242.8
				c0,5.6,3.3,8.2,7.8,8.2c5.4,0,8.3-3.4,8.3-10.8c0-7.3-3-10.8-8.3-10.8c-5.6,0-7.8,5.2-7.8,5.2V242.8z"/>
			<path id="XMLID_57_" class="st2" d="M52.9,226c9.5,0,11.3,7.5,11.3,11.5c0,1.7,0,3.8-2.4,3.8H44.6c0,5.9,3.4,9.6,8.9,9.6
				c3.4,0,5.4-1.3,7.1-2.5c0.4-0.2,0.6-0.4,1.1-0.4c0.9,0,1.7,0.8,1.7,1.7c0,0.7-0.3,1-0.6,1.4c-0.9,0.9-4,3.3-9.2,3.3
				c-7.9,0-12.8-4.3-12.8-14.2C40.7,231.1,45.2,226,52.9,226z M52.9,229.4c-5.1,0-8,3.3-8.3,8.6h15.9
				C60.5,233.7,59,229.4,52.9,229.4z"/>
			<path id="XMLID_60_" class="st2" d="M75.4,232.6c-0.6,0.7-1,0.8-1.5,0.8c-0.9,0-1.7-0.8-1.7-1.7c0-0.4,0.1-0.7,0.3-1
				c1.7-2.6,4.8-4.7,9.8-4.7c6.9,0,10.6,4,10.6,10v16.3c0,1-0.8,1.8-1.8,1.8c-1,0-1.8-0.8-1.8-1.8v-2.1c-1.5,2.8-4.9,4.3-8.5,4.3
				c-6.3,0-10.2-3-10.2-8.5c0-5.2,4-8.3,10.3-8.3h8.3v-1.6c0-4-2.7-6.5-7-6.5C79.1,229.6,77.3,230.5,75.4,232.6z M89.3,243.4V241
				h-8.3c-3.8,0-6.5,1.6-6.5,5c0,3.1,2.1,5,6.7,5C85.3,251,89.3,248.5,89.3,243.4z"/>
			<path id="XMLID_63_" class="st2" d="M103.8,220.6c0-1,0.9-1.9,1.9-1.9c1.1,0,1.9,0.9,1.9,1.9v6.2h3.8c1,0,1.8,0.8,1.8,1.8
				c0,1-0.8,1.8-1.8,1.8h-3.8v16.3c0,2.5,1.4,3.9,3.4,3.9c1,0,1.8,0.8,1.8,1.8c0,1-0.8,1.8-1.8,1.8c-4.7,0-7.2-3.1-7.2-7.4v-16.3
				h-2.3c-1,0-1.8-0.8-1.8-1.8c0-1,0.8-1.8,1.8-1.8h2.3V220.6z"/>
			<path id="XMLID_65_" class="st2" d="M124.4,233.2c0,6.2,15.5,3.9,15.5,13.4c0,5.4-4.4,7.8-10,7.8c-4.8,0-8.6-2.3-10.1-4.3
				c-0.3-0.4-0.4-0.7-0.4-1.1c0-0.9,0.8-1.7,1.7-1.7c0.4,0,0.8,0.1,1.3,0.6c1.8,1.8,4.2,2.9,7.5,2.9c3.4,0,6.3-1.1,6.3-4.2
				c0-6.1-15.5-3.7-15.5-13.4c0-4.9,4-7.2,9-7.2c4,0,7.2,1.4,9,3.8c0.2,0.2,0.4,0.6,0.4,1.1c0,0.9-0.8,1.7-1.7,1.7
				c-0.3,0-0.8-0.1-1.2-0.5c-1.6-1.5-3.4-2.5-6.4-2.5C127,229.7,124.4,230.5,124.4,233.2z"/>
		</g>
	</g>
</g>
<g id="XMLID_67_">
</g>
<g id="XMLID_68_">
</g>
<g id="XMLID_69_">
</g>
<g id="XMLID_70_">
</g>
<g id="XMLID_71_">
</g>
<g id="XMLID_72_">
</g>
<g id="XMLID_73_">
</g>
<g id="XMLID_74_">
</g>
<g id="XMLID_75_">
</g>
<g id="XMLID_76_">
</g>
<g id="XMLID_77_">
</g>
<g id="XMLID_78_">
</g>
<g id="XMLID_79_">
</g>
<g id="XMLID_80_">
</g>
<g id="XMLID_81_">
</g>
</svg>
