<?xml version="1.0" encoding="utf-8"?>
<!-- Generator: Adobe Illustrator 19.0.0, SVG Export Plug-In . SVG Version: 6.00 Build 0)  -->
<svg version="1.1" id="Capa_1" xmlns="http://www.w3.org/2000/svg" xmlns:xlink="http://www.w3.org/1999/xlink" x="0px" y="0px"
	 viewBox="-606 373.3 96 54.7" style="enable-background:new -606 373.3 96 54.7;" xml:space="preserve">
<style type="text/css">
	.st0{clip-path:url(#SVGID_2_);fill:url(#SVGID_3_);}
</style>
<g>
	<g>
		<defs>
			<path id="SVGID_1_" d="M-563.3,378.2l-9.4,22.1h-12.4c-1,0-1.8,0.8-1.8,1.8s0.8,1.8,1.8,1.8l13.6,1.3c0.7,0,1.4-0.4,1.7-1.1
				l7.3-11.2l6,29.8c0.1,0.8,0.8,1.4,1.6,1.5c0.1,0,0.2,0,0.3,0c0.7,0,1.4-0.4,1.7-1.1l9.4-20.5h12.6c1,0,1.8-0.8,1.8-1.8
				s-0.8-1.8-1.8-1.8l-13.7-1.2c-0.7,0-1.4,0.4-1.7,1.1l-7.3,9.9l-6-30.1c-0.1-0.8-0.8-1.4-1.6-1.5c-0.1,0-0.2,0-0.2,0
				C-562.4,377-563.1,377.5-563.3,378.2"/>
		</defs>
		<clipPath id="SVGID_2_">
			<use xlink:href="#SVGID_1_"  style="overflow:visible;"/>
		</clipPath>
		
			<linearGradient id="SVGID_3_" gradientUnits="userSpaceOnUse" x1="-2115.4355" y1="234.0383" x2="-2114.2036" y2="234.0383" gradientTransform="matrix(46.834 0 0 46.834 98487.4063 -10560.3516)">
			<stop  offset="0" style="stop-color:#843C91"/>
			<stop  offset="1" style="stop-color:#DA0038"/>
		</linearGradient>
		<rect x="-586.9" y="377" class="st0" width="57.7" height="47.2"/>
	</g>
</g>
</svg>
