<?xml version="1.0" encoding="utf-8"?>
<!-- Generator: Adobe Illustrator 17.0.0, SVG Export Plug-In . SVG Version: 6.00 Build 0)  -->
<!DOCTYPE svg PUBLIC "-//W3C//DTD SVG 1.0//EN" "http://www.w3.org/TR/2001/REC-SVG-20010904/DTD/svg10.dtd">
<svg version="1.0" id="Layer_1" xmlns="http://www.w3.org/2000/svg" xmlns:xlink="http://www.w3.org/1999/xlink" x="0px" y="0px"
	 width="151.142px" height="299.681px" viewBox="0 0 151.142 299.681" enable-background="new 0 0 151.142 299.681"
	 xml:space="preserve">
<g>
	<g>
		<path fill="#FFFFFF" d="M30.142,256.975c0,10.607-4.916,15.588-13.26,15.588c-7.374,0-12.678-4.204-12.678-12.742v-32.082
			c0-1.165,0.906-2.07,2.07-2.07c1.165,0,2.07,0.905,2.07,2.07v17.917c1.488-2.07,4.657-4.205,8.797-4.205
			C25.485,241.451,30.142,246.367,30.142,256.975z M8.344,259.821c0,6.145,3.558,8.99,8.538,8.99c5.951,0,9.12-3.751,9.12-11.836
			c0-7.956-3.234-11.772-9.12-11.772c-6.08,0-8.538,5.692-8.538,5.692V259.821z"/>
		<path fill="#FFFFFF" d="M50.577,241.451c10.349,0,12.354,8.215,12.354,12.613c0,1.876,0,4.14-2.587,4.14H41.457
			c0,6.403,3.687,10.543,9.767,10.543c3.751,0,5.951-1.423,7.762-2.781c0.388-0.259,0.647-0.388,1.164-0.388
			c1.035,0,1.876,0.841,1.876,1.876c0,0.711-0.323,1.1-0.711,1.487c-0.97,0.97-4.334,3.622-10.09,3.622
			c-8.603,0-13.972-4.722-13.972-15.588C37.252,247.014,42.168,241.451,50.577,241.451z M50.577,245.203
			c-5.627,0-8.732,3.622-9.12,9.379h17.399C58.856,249.925,57.239,245.203,50.577,245.203z"/>
		<path fill="#FFFFFF" d="M75.216,248.631c-0.646,0.712-1.1,0.906-1.682,0.906c-1.035,0-1.875-0.841-1.875-1.876
			c0-0.453,0.129-0.776,0.323-1.1c1.811-2.846,5.304-5.11,10.737-5.11c7.503,0,11.643,4.398,11.643,10.996v17.788
			c0,1.1-0.905,2.005-2.005,2.005s-2.005-0.905-2.005-2.005v-2.329c-1.617,3.04-5.369,4.657-9.25,4.657
			c-6.856,0-11.19-3.299-11.19-9.249c0-5.692,4.333-9.121,11.319-9.121h9.121v-1.746c0-4.398-2.911-7.115-7.633-7.115
			C79.291,245.332,77.221,246.367,75.216,248.631z M90.352,260.532v-2.716h-9.121c-4.204,0-7.115,1.746-7.115,5.498
			c0,3.363,2.329,5.497,7.374,5.497C86.018,268.811,90.352,266.03,90.352,260.532z"/>
		<path fill="#FFFFFF" d="M106.324,235.565c0-1.1,0.971-2.07,2.07-2.07c1.164,0,2.069,0.971,2.069,2.07v6.792h4.204
			c1.1,0,1.94,0.841,1.94,1.94s-0.841,1.94-1.94,1.94h-4.204v17.852c0,2.781,1.553,4.27,3.752,4.27c1.1,0,2.005,0.841,2.005,1.94
			s-0.905,1.94-2.005,1.94c-5.11,0-7.892-3.429-7.892-8.15v-17.852h-2.522c-1.1,0-1.94-0.841-1.94-1.94s0.841-1.94,1.94-1.94h2.522
			V235.565z"/>
		<path fill="#FFFFFF" d="M128.766,249.343c0,6.792,17.011,4.269,17.011,14.618c0,5.886-4.851,8.538-10.996,8.538
			c-5.304,0-9.379-2.522-11.061-4.657c-0.323-0.453-0.452-0.776-0.452-1.229c0-1.034,0.841-1.875,1.876-1.875
			c0.388,0,0.905,0.129,1.423,0.646c2.005,2.005,4.592,3.17,8.214,3.17c3.688,0,6.856-1.229,6.856-4.593
			c0-6.662-17.011-4.011-17.011-14.618c0-5.369,4.398-7.826,9.896-7.826c4.397,0,7.826,1.487,9.831,4.14
			c0.194,0.258,0.453,0.646,0.453,1.229c0,1.035-0.841,1.876-1.876,1.876c-0.323,0-0.841-0.064-1.358-0.582
			c-1.746-1.682-3.687-2.717-7.05-2.717C131.612,245.462,128.766,246.367,128.766,249.343z"/>
	</g>
	<path fill="#743FC9" d="M149.949,0c0,0-108.456,62.451-110.422,63.774c-1.966,1.323-2.972,3.416-2.972,3.416
		c-0.661,1.305-1.024,2.826-1.024,4.493v84.054c0,4.146,2.375,7.528,6.056,8.714l63.54-96.269c-0.044-0.032-0.09-0.062-0.134-0.094
		L149.949,0z"/>
	<linearGradient id="SVGID_1_" gradientUnits="userSpaceOnUse" x1="-4.5091" y1="144.4269" x2="127.924" y2="144.4269">
		<stop  offset="0" style="stop-color:#863C93"/>
		<stop  offset="1" style="stop-color:#FF0138"/>
	</linearGradient>
	<path fill="url(#SVGID_1_)" d="M122.631,122.241c-2.512-6.505-7.308-12.103-14.739-15.018c6.216-5.474,8.138-9.788,8.138-16.449
		c0-9.018-3.752-17.346-10.904-22.593l-63.54,96.269L4.479,220.672l99.86-57.744l11.235-6.497c1.313-1.219,2.494-2.542,3.528-3.965
		c3.753-5.164,5.659-11.566,5.659-18.481C124.762,129.995,124.07,125.97,122.631,122.241z"/>
	<g>
		<linearGradient id="SVGID_2_" gradientUnits="userSpaceOnUse" x1="52.083" y1="290.4869" x2="74.5486" y2="290.4869">
			<stop  offset="0" style="stop-color:#863C93"/>
			<stop  offset="1" style="stop-color:#FF0138"/>
		</linearGradient>
		<path fill="url(#SVGID_2_)" d="M61.259,281.731l-3.657,8.596h-4.8c-0.397,0-0.719,0.322-0.719,0.72
			c0,0.397,0.322,0.719,0.719,0.719l5.276,0.48c0.289,0,0.549-0.173,0.662-0.437l2.866-4.338l2.318,11.605
			c0.05,0.313,0.299,0.556,0.614,0.599c0.032,0.004,0.065,0.007,0.097,0.007c0.278,0,0.535-0.162,0.654-0.42l3.651-7.975h4.889
			c0.397,0,0.72-0.322,0.72-0.719c0-0.398-0.322-0.72-0.72-0.72l-5.351-0.48c-0.281,0-0.536,0.164-0.654,0.42l-2.854,3.836
			l-2.337-11.724c-0.051-0.317-0.305-0.561-0.623-0.601c-0.031-0.004-0.061-0.006-0.092-0.006
			C61.633,281.293,61.373,281.464,61.259,281.731"/>
	</g>
	<g>
		<path fill="#FFFFFF" d="M25.839,285.728c0.045-0.12,0.195-0.33,0.48-0.33s0.51,0.226,0.51,0.51c0,0.091-0.03,0.181-0.045,0.226
			l-3.51,9.255c-0.075,0.21-0.285,0.345-0.48,0.345s-0.405-0.135-0.48-0.345l-3.51-9.255c-0.015-0.045-0.045-0.135-0.045-0.226
			c0-0.284,0.225-0.51,0.51-0.51s0.435,0.21,0.48,0.33l3.045,8.07L25.839,285.728z"/>
		<path fill="#FFFFFF" d="M29.937,295.224c0,0.27-0.225,0.51-0.51,0.51s-0.51-0.24-0.51-0.51v-9.315c0-0.27,0.225-0.51,0.51-0.51
			s0.51,0.24,0.51,0.51V295.224z"/>
		<path fill="#FFFFFF" d="M39.088,285.728c0.045-0.12,0.195-0.33,0.48-0.33s0.51,0.226,0.51,0.51c0,0.091-0.03,0.181-0.045,0.226
			l-3.51,9.255c-0.075,0.21-0.285,0.345-0.48,0.345s-0.405-0.135-0.48-0.345l-3.51-9.255c-0.015-0.045-0.045-0.135-0.045-0.226
			c0-0.284,0.225-0.51,0.51-0.51s0.435,0.21,0.48,0.33l3.045,8.07L39.088,285.728z"/>
		<path fill="#FFFFFF" d="M42.675,295.613c-0.285,0-0.51-0.225-0.51-0.51v-9.075c0-0.284,0.225-0.51,0.51-0.51h4.815
			c0.255,0,0.465,0.21,0.465,0.465s-0.21,0.465-0.465,0.465h-4.305v3.615h3.3c0.255,0,0.465,0.21,0.465,0.465
			s-0.21,0.465-0.465,0.465h-3.3v3.69h4.47c0.255,0,0.465,0.21,0.465,0.465s-0.21,0.465-0.465,0.465H42.675z"/>
		<path fill="#FFFFFF" d="M83.709,293.693l-3.135-5.835v7.38c0,0.27-0.226,0.495-0.495,0.495s-0.495-0.226-0.495-0.495v-9.345
			c0-0.27,0.226-0.495,0.495-0.495c0.225,0,0.375,0.136,0.45,0.285l3.63,6.795l3.645-6.795c0.061-0.104,0.18-0.285,0.45-0.285
			c0.27,0,0.496,0.226,0.496,0.495v9.345c0,0.27-0.226,0.495-0.496,0.495c-0.271,0-0.495-0.226-0.495-0.495v-7.38l-3.149,5.835
			c-0.105,0.195-0.271,0.285-0.45,0.285C84.009,293.978,83.813,293.903,83.709,293.693z"/>
		<path fill="#FFFFFF" d="M91.753,292.538v-6.63c0-0.284,0.225-0.51,0.51-0.51s0.51,0.226,0.51,0.51v6.63
			c0,1.186,0.436,2.325,2.505,2.325c2.055,0,2.49-1.14,2.49-2.325v-6.63c0-0.284,0.225-0.51,0.51-0.51s0.51,0.226,0.51,0.51v6.63
			c0,1.65-0.675,3.285-3.51,3.285S91.753,294.188,91.753,292.538z M94.528,284.304l1.335-1.62c0.12-0.149,0.33-0.21,0.57,0
			c0.225,0.21,0.21,0.405,0.045,0.57l-1.455,1.47c-0.135,0.135-0.27,0.18-0.45,0.03C94.393,284.603,94.423,284.438,94.528,284.304z"
			/>
		<path fill="#FFFFFF" d="M104.73,286.238c-1.575,0-2.175,0.78-2.175,1.636c0,2.489,5.67,1.425,5.67,5.039
			c0,1.875-1.29,2.91-3.601,2.91c-1.709,0-2.984-0.87-3.494-1.845c-0.061-0.12-0.075-0.18-0.075-0.271
			c0-0.27,0.21-0.479,0.479-0.479c0.181,0,0.33,0.09,0.42,0.24c0.48,0.779,1.351,1.425,2.67,1.425c1.65,0,2.58-0.66,2.58-1.98
			c0-2.805-5.67-1.484-5.67-5.039c0-1.381,1.006-2.565,3.195-2.565c1.425,0,2.58,0.6,3.21,1.545c0.06,0.09,0.09,0.18,0.09,0.285
			c0,0.27-0.21,0.479-0.479,0.479c-0.136,0-0.271-0.045-0.391-0.194C106.709,286.868,105.99,286.238,104.73,286.238z"/>
		<path fill="#FFFFFF" d="M111.693,295.224c0,0.27-0.225,0.51-0.51,0.51s-0.51-0.24-0.51-0.51v-9.315c0-0.27,0.225-0.51,0.51-0.51
			s0.51,0.24,0.51,0.51V295.224z"/>
		<path fill="#FFFFFF" d="M114.139,290.573c0-3.555,1.77-5.265,4.68-5.265c1.425,0,2.67,0.615,3.375,1.59
			c0.075,0.105,0.104,0.21,0.104,0.315c0,0.27-0.21,0.479-0.479,0.479c-0.135,0-0.271-0.045-0.391-0.194
			c-0.51-0.705-1.484-1.261-2.609-1.261c-2.31,0-3.63,1.396-3.63,4.335c0,3.12,1.32,4.32,3.63,4.32c0.99,0,2.024-0.391,2.609-1.23
			c0.105-0.149,0.271-0.194,0.391-0.194c0.27,0,0.479,0.21,0.479,0.479c0,0.12-0.029,0.195-0.09,0.285
			c-0.66,0.96-2.01,1.59-3.39,1.59C115.909,295.823,114.139,294.264,114.139,290.573z"/>
		<path fill="#FFFFFF" d="M125.976,292.628l-1.095,2.745c-0.075,0.195-0.24,0.36-0.495,0.36c-0.285,0-0.51-0.24-0.51-0.51
			c0-0.061,0.015-0.165,0.045-0.226l3.659-9.254c0.075-0.181,0.21-0.346,0.48-0.346c0.255,0,0.42,0.165,0.495,0.346l3.66,9.254
			c0.029,0.075,0.045,0.181,0.045,0.226c0,0.27-0.21,0.51-0.525,0.51c-0.255,0-0.42-0.15-0.495-0.345l-1.08-2.761H125.976z
			 M128.061,287.108l-1.77,4.59h3.555L128.061,287.108z"/>
	</g>
</g>
<g>
</g>
<g>
</g>
<g>
</g>
<g>
</g>
<g>
</g>
<g>
</g>
<g>
</g>
<g>
</g>
<g>
</g>
<g>
</g>
<g>
</g>
<g>
</g>
<g>
</g>
<g>
</g>
<g>
</g>
</svg>
