<svg xmlns="http://www.w3.org/2000/svg" xmlns:xlink="http://www.w3.org/1999/xlink" viewBox="0 0 145.745 299.682"><defs><style>.a{fill:#fff;}.b{fill:#743fc9;}.c{fill:url(#a);}.d{fill:url(#b);}</style><linearGradient id="a" x1="-0.075" y1="0.5" x2="1.026" y2="0.5" gradientUnits="objectBoundingBox"><stop offset="0" stop-color="#863c93"/><stop offset="1" stop-color="#ff0138"/></linearGradient><linearGradient id="b" x1="0" y1="0.5" x2="1" y2="0.5" xlink:href="#a"/></defs><g transform="translate(-4.204)"><path class="a" d="M30.142,256.975c0,10.607-4.916,15.588-13.26,15.588-7.374,0-12.678-4.2-12.678-12.742V227.739a2.07,2.07,0,1,1,4.14,0v17.917a10.962,10.962,0,0,1,8.8-4.205C25.485,241.451,30.142,246.367,30.142,256.975Zm-21.8,2.846c0,6.145,3.558,8.99,8.538,8.99,5.951,0,9.12-3.751,9.12-11.836,0-7.956-3.234-11.772-9.12-11.772-6.08,0-8.538,5.692-8.538,5.692Z"/><path class="a" d="M50.577,241.451c10.349,0,12.354,8.215,12.354,12.613,0,1.876,0,4.14-2.587,4.14H41.457c0,6.4,3.687,10.543,9.767,10.543a11.916,11.916,0,0,0,7.762-2.781,1.8,1.8,0,0,1,1.164-.388,1.877,1.877,0,0,1,1.876,1.876,1.935,1.935,0,0,1-.711,1.487,14.409,14.409,0,0,1-10.09,3.622c-8.6,0-13.972-4.722-13.972-15.588C37.252,247.014,42.168,241.451,50.577,241.451Zm0,3.752c-5.627,0-8.732,3.622-9.12,9.379h17.4C58.856,249.925,57.239,245.2,50.577,245.2Z"/><path class="a" d="M75.216,248.631a2.108,2.108,0,0,1-1.682.906,1.877,1.877,0,0,1-1.875-1.876,2.007,2.007,0,0,1,.323-1.1c1.811-2.846,5.3-5.11,10.737-5.11,7.5,0,11.643,4.4,11.643,11v17.788a2,2,0,1,1-4.01,0v-2.329c-1.617,3.04-5.369,4.657-9.25,4.657-6.856,0-11.19-3.3-11.19-9.249,0-5.692,4.333-9.121,11.319-9.121h9.121v-1.746c0-4.4-2.911-7.115-7.633-7.115A8.952,8.952,0,0,0,75.216,248.631Zm15.136,11.9v-2.716H81.231c-4.2,0-7.115,1.746-7.115,5.5,0,3.363,2.329,5.5,7.374,5.5C86.018,268.811,90.352,266.03,90.352,260.532Z"/><path class="a" d="M106.324,235.565a2.129,2.129,0,0,1,2.07-2.07,2.084,2.084,0,0,1,2.069,2.07v6.792h4.2a1.94,1.94,0,0,1,0,3.88h-4.2v17.852c0,2.781,1.553,4.27,3.752,4.27a1.941,1.941,0,1,1,0,3.88c-5.11,0-7.892-3.429-7.892-8.15V246.237H103.8a1.94,1.94,0,0,1,0-3.88h2.522v-6.792Z"/><path class="a" d="M128.766,249.343c0,6.792,17.011,4.269,17.011,14.618,0,5.886-4.851,8.538-11,8.538-5.3,0-9.379-2.522-11.061-4.657a1.935,1.935,0,0,1-.452-1.229,1.877,1.877,0,0,1,1.876-1.875,1.985,1.985,0,0,1,1.423.646,10.952,10.952,0,0,0,8.214,3.17c3.688,0,6.856-1.229,6.856-4.593,0-6.662-17.011-4.011-17.011-14.618,0-5.369,4.4-7.826,9.9-7.826,4.4,0,7.826,1.487,9.831,4.14a1.964,1.964,0,0,1,.453,1.229,1.877,1.877,0,0,1-1.876,1.876,1.832,1.832,0,0,1-1.358-.582,9.185,9.185,0,0,0-7.05-2.717C131.612,245.462,128.766,246.367,128.766,249.343Z"/><path class="b" d="M149.949,0S41.493,62.451,39.527,63.774a9.671,9.671,0,0,0-2.972,3.416,9.89,9.89,0,0,0-1.024,4.493v84.054a8.846,8.846,0,0,0,6.056,8.714l63.54-96.269c-.044-.032-.09-.062-.134-.094Z"/><path class="c" d="M122.631,122.241a25.6,25.6,0,0,0-14.739-15.018c6.216-5.474,8.138-9.788,8.138-16.449,0-9.018-3.752-17.346-10.9-22.593L41.586,164.45,4.479,220.672l99.86-57.744,11.235-6.5a27.355,27.355,0,0,0,3.528-3.965,31.117,31.117,0,0,0,5.659-18.481A32.722,32.722,0,0,0,122.631,122.241Z"/><path class="d" d="M61.259,281.731l-3.657,8.6H52.8a.719.719,0,0,0,0,1.439l5.276.48a.721.721,0,0,0,.662-.437l2.866-4.338,2.318,11.605a.719.719,0,0,0,.614.6.791.791,0,0,0,.1.007.721.721,0,0,0,.654-.42l3.651-7.975h4.889a.719.719,0,1,0,0-1.439l-5.351-.48a.72.72,0,0,0-.654.42l-2.854,3.836L62.633,281.9a.721.721,0,0,0-.623-.6.714.714,0,0,0-.751.432"/><path class="a" d="M25.839,285.728a.514.514,0,0,1,.48-.33.506.506,0,0,1,.51.51.738.738,0,0,1-.045.226l-3.51,9.255a.506.506,0,0,1-.96,0l-3.51-9.255a.738.738,0,0,1-.045-.226.506.506,0,0,1,.51-.51.514.514,0,0,1,.48.33l3.045,8.07Z"/><path class="a" d="M29.937,295.224a.51.51,0,1,1-1.02,0v-9.315a.51.51,0,1,1,1.02,0Z"/><path class="a" d="M39.088,285.728a.514.514,0,0,1,.48-.33.506.506,0,0,1,.51.51.738.738,0,0,1-.045.226l-3.51,9.255a.506.506,0,0,1-.96,0l-3.51-9.255a.738.738,0,0,1-.045-.226.506.506,0,0,1,.51-.51.514.514,0,0,1,.48.33l3.045,8.07Z"/><path class="a" d="M42.675,295.613a.506.506,0,0,1-.51-.51v-9.075a.506.506,0,0,1,.51-.51H47.49a.465.465,0,1,1,0,.93H43.185v3.615h3.3a.465.465,0,1,1,0,.93h-3.3v3.69h4.47a.465.465,0,1,1,0,.93h-4.98Z"/><path class="a" d="M83.709,293.693l-3.135-5.835v7.38a.5.5,0,0,1-.99,0v-9.345a.5.5,0,0,1,.945-.21l3.63,6.8,3.645-6.8a.5.5,0,0,1,.946.21v9.345a.5.5,0,0,1-.991,0v-7.38l-3.149,5.835a.5.5,0,0,1-.9,0Z"/><path class="a" d="M91.753,292.538v-6.63a.51.51,0,1,1,1.02,0v6.63c0,1.186.436,2.325,2.5,2.325s2.49-1.14,2.49-2.325v-6.63a.51.51,0,1,1,1.02,0v6.63c0,1.65-.675,3.285-3.51,3.285S91.753,294.188,91.753,292.538Zm2.775-8.234,1.335-1.62a.364.364,0,0,1,.57,0c.225.21.21.4.045.57l-1.455,1.47a.29.29,0,0,1-.45.03A.294.294,0,0,1,94.528,284.3Z"/><path class="a" d="M104.73,286.238c-1.575,0-2.175.78-2.175,1.636,0,2.489,5.67,1.425,5.67,5.039,0,1.875-1.29,2.91-3.6,2.91a3.885,3.885,0,0,1-3.494-1.845.519.519,0,0,1-.075-.271.473.473,0,0,1,.479-.479.478.478,0,0,1,.42.24,3,3,0,0,0,2.67,1.425c1.65,0,2.58-.66,2.58-1.98,0-2.8-5.67-1.484-5.67-5.039,0-1.381,1.006-2.565,3.195-2.565a3.748,3.748,0,0,1,3.21,1.545.494.494,0,0,1,.09.285.483.483,0,0,1-.87.285A2.963,2.963,0,0,0,104.73,286.238Z"/><path class="a" d="M111.693,295.224a.51.51,0,1,1-1.02,0v-9.315a.51.51,0,1,1,1.02,0Z"/><path class="a" d="M114.139,290.573c0-3.555,1.77-5.265,4.68-5.265a4.118,4.118,0,0,1,3.375,1.59.527.527,0,0,1,.1.315.483.483,0,0,1-.87.285,3.26,3.26,0,0,0-2.609-1.261c-2.31,0-3.63,1.4-3.63,4.335,0,3.12,1.32,4.32,3.63,4.32a3.152,3.152,0,0,0,2.609-1.23.483.483,0,0,1,.87.285.455.455,0,0,1-.09.285,4.19,4.19,0,0,1-3.39,1.59C115.909,295.823,114.139,294.264,114.139,290.573Z"/><path class="a" d="M125.976,292.628l-1.1,2.745a.523.523,0,0,1-.5.36.515.515,0,0,1-.51-.51.607.607,0,0,1,.045-.226l3.659-9.254a.5.5,0,0,1,.48-.346.529.529,0,0,1,.495.346l3.66,9.254a.778.778,0,0,1,.045.226.526.526,0,0,1-1.02.165l-1.08-2.761h-4.184Zm2.085-5.52-1.77,4.59h3.555Z"/></g></svg>